# xmcd
#
# Track frame offsets: 
#        150
#        13275
#        22425
#        32831
#        47625
#        61071
#        73896
#        84584
#        98267
#        109430
#        120846
#        133172
#        141703
#        156829
#        171304
#        185156
#        196691
#        214241
#        229316
#        239724
#        252579
#        263200
#        273887
#        285057
#        296470
#
# Disc length: 4058 seconds
#
# Revision: 0
# Processed by: cddbd v1.5.2PL0 Copyright (c) Steve Scherf et al.
# Submitted via: ExactAudioCopy v1.3
#
DISCID=830fd819
DTITLE=Stones River Ranch Boys - CD1_Gospel Favorites
DYEAR=2011
DGENRE=Country
TTITLE0=Walking In Jerusalem
TTITLE1=Amazing Grace
TTITLE2=Give Me That Old Time Religion
TTITLE3=Blessed Assurance
TTITLE4=Wayfaring Stranger
TTITLE5=Swing Low, Sweet Chariot
TTITLE6=Will The Circle Be Unbroken
TTITLE7=Just One Rose Will Do
TTITLE8=Farther Along
TTITLE9=In The Garden
TTITLE10=Learning On The Everlasting Arms
TTITLE11=Sweet Hour Of Prayer
TTITLE12=Amen
TTITLE13=Old Rugged Cross
TTITLE14=Life's Railway To Heaven
TTITLE15=Church In The Wildwood
TTITLE16=Walk That Lonesome Valley
TTITLE17=Uncloudy Day
TTITLE18=How Marvelous
TTITLE19=Great Speckled Bird
TTITLE20=Abide With Me
TTITLE21=Power In The Blood
TTITLE22=Peace In The Valley
TTITLE23=Holy Holy Holy
TTITLE24=Doxology
EXTD=
EXTT0=
EXTT1=
EXTT2=
EXTT3=
EXTT4=
EXTT5=
EXTT6=
EXTT7=
EXTT8=
EXTT9=
EXTT10=
EXTT11=
EXTT12=
EXTT13=
EXTT14=
EXTT15=
EXTT16=
EXTT17=
EXTT18=
EXTT19=
EXTT20=
EXTT21=
EXTT22=
EXTT23=
EXTT24=
PLAYORDER=
